<svg width="51" height="52" viewBox="0 0 51 52" fill="none" xmlns="http://www.w3.org/2000/svg">
<path d="M39.7588 41.9375C37.995 44.5725 36.125 47.1437 33.2775 47.1862C30.43 47.25 29.5163 45.5075 26.2863 45.5075C23.035 45.5075 22.0363 47.1437 19.3375 47.25C16.5538 47.3563 14.45 44.445 12.665 41.8737C9.03129 36.625 6.24754 26.9563 9.98754 20.4538C11.8363 17.2238 15.1513 15.1838 18.7425 15.12C21.4625 15.0775 24.055 16.9688 25.7338 16.9688C27.3913 16.9688 30.5363 14.695 33.83 15.035C35.2113 15.0988 39.0788 15.5875 41.565 19.2425C41.3738 19.37 36.9538 21.9625 36.9963 27.3388C37.06 33.7563 42.6275 35.9025 42.6913 35.9237C42.6275 36.0725 41.7988 38.9837 39.7588 41.9375ZM27.625 7.9375C29.1763 6.17375 31.7475 4.835 33.8725 4.75C34.1488 7.23625 33.15 9.74375 31.6625 11.5287C30.1963 13.335 27.7738 14.7375 25.3938 14.5463C25.075 12.1025 26.265 9.5525 27.625 7.9375Z" fill="#000E1B"/>
</svg>
