<svg width="51" height="52" viewBox="0 0 51 52" fill="none" xmlns="http://www.w3.org/2000/svg">
<path d="M4.78125 6.42581V45.5723C4.78151 45.6572 4.80684 45.7402 4.85407 45.8108C4.90129 45.8814 4.96831 45.9365 5.04671 45.9691C5.12511 46.0018 5.21141 46.0106 5.29478 45.9944C5.37815 45.9782 5.45489 45.9377 5.51537 45.8781L25.8984 26.0001L5.51537 6.12001C5.45489 6.06038 5.37815 6.01994 5.29478 6.00375C5.21141 5.98756 5.12511 5.99634 5.04671 6.029C4.96831 6.06166 4.90129 6.11674 4.85407 6.18733C4.80684 6.25792 4.78151 6.34088 4.78125 6.42581ZM34.4449 17.8321L8.88715 3.7513L8.87121 3.74234C8.43094 3.50328 8.01258 4.09894 8.37316 4.44558L28.4076 23.6025L34.4449 17.8321ZM8.37516 47.5545C8.01258 47.9012 8.43094 48.4968 8.8732 48.2578L8.88914 48.2488L34.4449 34.168L28.4076 28.3957L8.37516 47.5545ZM44.7625 23.5098L37.6255 19.5792L30.9148 26.0001L37.6255 32.4179L44.7625 28.4903C46.7038 27.4175 46.7038 24.5826 44.7625 23.5098Z" fill="#000E1B"/>
</svg>
