<svg width="120" height="37" viewBox="0 0 120 37" fill="none" xmlns="http://www.w3.org/2000/svg">
<path d="M75.9175 33.8537L72.892 22.9446H74.6231L76.7485 31.3927H76.8497L79.0603 22.9446H80.7755L82.9861 31.3981H83.0873L85.2073 22.9446H86.9438L83.9129 33.8537H82.2563L79.9605 25.6825H79.8753L77.5795 33.8537H75.9175ZM88.3168 33.8537V25.6718H89.9094V33.8537H88.3168ZM89.1211 24.4094C88.8441 24.4094 88.6062 24.3171 88.4073 24.1324C88.212 23.9442 88.1143 23.7205 88.1143 23.4613C88.1143 23.1985 88.212 22.9748 88.4073 22.7901C88.6062 22.6019 88.8441 22.5078 89.1211 22.5078C89.3981 22.5078 89.6342 22.6019 89.8295 22.7901C90.0284 22.9748 90.1278 23.1985 90.1278 23.4613C90.1278 23.7205 90.0284 23.9442 89.8295 24.1324C89.6342 24.3171 89.3981 24.4094 89.1211 24.4094ZM93.6448 28.9957V33.8537H92.0521V25.6718H93.5809V27.0035H93.6821C93.8703 26.5703 94.165 26.2223 94.5663 25.9595C94.9711 25.6967 95.4807 25.5653 96.0951 25.5653C96.6526 25.5653 97.1409 25.6825 97.5599 25.9169C97.979 26.1477 98.3039 26.4922 98.5347 26.9503C98.7655 27.4084 98.8809 27.9748 98.8809 28.6495V33.8537H97.2883V28.8412C97.2883 28.2482 97.1338 27.7848 96.8248 27.451C96.5159 27.1136 96.0915 26.9449 95.5518 26.9449C95.1824 26.9449 94.854 27.0248 94.5663 27.1846C94.2822 27.3444 94.0567 27.5788 93.8898 27.8878C93.7265 28.1932 93.6448 28.5625 93.6448 28.9957ZM104.836 25.6718V26.9503H100.367V25.6718H104.836ZM101.566 23.7116H103.158V31.4513C103.158 31.7603 103.204 31.9929 103.297 32.1491C103.389 32.3018 103.508 32.4066 103.654 32.4634C103.803 32.5167 103.964 32.5433 104.138 32.5433C104.266 32.5433 104.378 32.5344 104.474 32.5167C104.57 32.4989 104.644 32.4847 104.698 32.4741L104.985 33.7897C104.893 33.8253 104.762 33.8608 104.591 33.8963C104.421 33.9353 104.208 33.9567 103.952 33.9602C103.533 33.9673 103.142 33.8927 102.78 33.7365C102.418 33.5802 102.125 33.3388 101.901 33.012C101.677 32.6853 101.566 32.2752 101.566 31.7816V23.7116ZM110.036 34.0188C109.23 34.0188 108.536 33.8466 107.954 33.5021C107.375 33.1541 106.927 32.6658 106.611 32.0373C106.299 31.4052 106.143 30.6647 106.143 29.816C106.143 28.978 106.299 28.2393 106.611 27.6001C106.927 26.9609 107.368 26.462 107.932 26.1033C108.501 25.7446 109.165 25.5653 109.925 25.5653C110.386 25.5653 110.834 25.6417 111.267 25.7944C111.7 25.9471 112.089 26.1868 112.433 26.5135C112.778 26.8402 113.05 27.2645 113.248 27.7866C113.447 28.305 113.547 28.9353 113.547 29.6775V30.2422H107.043V29.049H111.986C111.986 28.6299 111.901 28.2589 111.73 27.9357C111.56 27.609 111.32 27.3515 111.011 27.1633C110.706 26.9751 110.347 26.881 109.935 26.881C109.488 26.881 109.097 26.9911 108.763 27.2113C108.433 27.4279 108.177 27.712 107.996 28.0635C107.819 28.4116 107.73 28.7897 107.73 29.1981V30.1303C107.73 30.6772 107.826 31.1424 108.018 31.5259C108.213 31.9094 108.485 32.2024 108.833 32.4048C109.181 32.6037 109.587 32.7031 110.052 32.7031C110.354 32.7031 110.629 32.6605 110.878 32.5753C111.127 32.4865 111.341 32.3551 111.523 32.1811C111.704 32.0071 111.842 31.7922 111.938 31.5366L113.445 31.8082C113.325 32.2521 113.108 32.641 112.796 32.9748C112.487 33.305 112.098 33.5625 111.629 33.7471C111.164 33.9282 110.633 34.0188 110.036 34.0188ZM115.314 33.8537V25.6718H116.853V26.9716H116.938C117.088 26.5312 117.35 26.185 117.727 25.9329C118.107 25.6772 118.536 25.5493 119.016 25.5493C119.115 25.5493 119.233 25.5529 119.367 25.56C119.506 25.5671 119.614 25.576 119.692 25.5866V27.1101C119.628 27.0923 119.515 27.0728 119.351 27.0515C119.188 27.0266 119.025 27.0142 118.861 27.0142C118.485 27.0142 118.149 27.0941 117.855 27.2539C117.563 27.4101 117.333 27.6285 117.162 27.9091C116.992 28.1861 116.907 28.5021 116.907 28.8572V33.8537H115.314Z" fill="#0B2545"/>
<path d="M40.3039 8.71517H31.2112V0.42865H27.7744V20.402H31.2112V11.7155H40.3039V20.402H43.7136V0.42865H40.3039V8.71517Z" fill="#1C1C1C"/>
<path d="M64.2669 1.31442C62.7424 0.438142 61.042 0 59.1658 0C57.2895 0 55.5621 0.438142 54.0376 1.31442C52.5132 2.19069 51.3134 3.41938 50.4384 5.00049C49.5635 6.58159 49.126 8.39129 49.126 10.4296C49.126 12.4679 49.5635 14.2776 50.4384 15.8587C51.3134 17.4398 52.5132 18.6637 54.0376 19.5305C55.5621 20.3972 57.2715 20.8306 59.1658 20.8306C61.0601 20.8306 62.7424 20.3924 64.2669 19.5162C65.7913 18.6399 66.9911 17.416 67.866 15.8444C68.741 14.2728 69.1785 12.4679 69.1785 10.4296C69.1785 8.39129 68.741 6.58159 67.866 5.00049C66.9911 3.41938 65.7913 2.19069 64.2669 1.31442ZM64.8352 14.1871C64.2488 15.2634 63.4595 16.092 62.4673 16.6731C61.475 17.2541 60.3745 17.5446 59.1658 17.5446C57.957 17.5446 56.852 17.2541 55.8507 16.6731C54.8495 16.092 54.0557 15.2634 53.4693 14.1871C52.883 13.1108 52.5898 11.8583 52.5898 10.4296C52.5898 9.00087 52.8785 7.77695 53.4558 6.70065C54.0331 5.62436 54.8224 4.79094 55.8237 4.20041C56.825 3.60988 57.939 3.3146 59.1658 3.3146C60.3926 3.3146 61.5021 3.60988 62.4943 4.20041C63.4866 4.79094 64.2714 5.62436 64.8487 6.70065C65.426 7.77695 65.7147 9.01992 65.7147 10.4296C65.7147 11.8392 65.4215 13.1108 64.8352 14.1871Z" fill="#1C1C1C"/>
<path d="M88.0133 10.5153C88.6989 9.48667 89.0417 8.23894 89.0417 6.77213C89.0417 4.71478 88.4734 3.14321 87.3368 2.05739C86.2002 0.971566 84.5855 0.42865 82.4928 0.42865H74.5908V20.402H78.0276V13.087H81.7621L85.4154 20.402H88.9334L85.0907 12.7156C86.3535 12.2774 87.3277 11.544 88.0133 10.5153ZM84.5765 9.25808C83.8909 9.81052 82.9889 10.0867 81.8704 10.0867H78.0276V3.42894H81.8704C84.36 3.42894 85.6048 4.54334 85.6048 6.77213C85.6048 7.877 85.2621 8.70565 84.5765 9.25808Z" fill="#1C1C1C"/>
<path d="M100.272 0.42865L92.6943 20.402H96.2123L97.9172 15.8016H105.927L107.659 20.402H111.15L103.6 0.42865H100.272ZM98.8644 12.8013L101.922 4.31474L104.98 12.8013H98.8644Z" fill="#1C1C1C"/>
<path d="M120 0.42865H116.563V20.402H120V0.42865Z" fill="#1C1C1C"/>
<path d="M9.88195 0.395264H0V20.402H18.9475V0.395264H9.88195ZM3.72998 18.497H1.8041V14.4538C2.05667 14.4633 2.30474 14.4681 2.5528 14.4681C3.04442 14.4681 3.53152 14.449 4.01412 14.4204L3.72998 18.497ZM4.14943 12.4822C3.37817 12.5393 2.5979 12.5584 1.8041 12.5345V2.30021H4.86205L4.14943 12.4822ZM6.67517 2.30021H10.103L11.0817 10.7296C9.47152 11.463 7.76214 11.9774 5.97608 12.2679L6.67517 2.30021ZM5.53858 18.497L5.83626 14.2395C7.74861 13.9728 9.57977 13.468 11.3117 12.7298L11.9792 18.497H5.53408H5.53858ZM17.1434 18.497H13.8014L13.0346 11.8964C14.4869 11.1153 15.858 10.1534 17.1434 9.02467V18.497ZM17.1434 2.30021V6.46253C15.8084 7.81028 14.3561 8.93895 12.7956 9.8438L11.9206 2.30021H17.1434Z" fill="#0B2545"/>
</svg>
