<svg width="50" height="50" viewBox="0 0 50 50" fill="none" xmlns="http://www.w3.org/2000/svg">
<path d="M26.0771 0H0V50H50V0H26.0771ZM9.8429 45.2392H4.76077V35.1345C5.42728 35.1583 6.08189 35.1702 6.7365 35.1702C8.03381 35.1702 9.3192 35.1226 10.5927 35.0512L9.8429 45.2392ZM10.9498 30.2071C8.91454 30.3499 6.85551 30.3975 4.76077 30.338V4.76077H12.8303L10.9498 30.2071ZM17.6149 4.76077H26.6603L29.243 25.8272C24.994 27.6601 20.4832 28.9455 15.7701 29.6715L17.6149 4.76077ZM14.6156 45.2392L15.4011 34.5989C20.4475 33.9324 25.2797 32.6708 29.85 30.826L31.6115 45.2392H14.6037H14.6156ZM45.2392 45.2392H36.4199L34.3966 28.7431C38.229 26.7912 41.8472 24.387 45.2392 21.5663V45.2392ZM45.2392 4.76077V15.1631C41.7163 18.5313 37.8838 21.3521 33.7658 23.6134L31.4568 4.76077H45.2392Z" fill="#0B2545"/>
</svg>
